<svg xmlns="http://www.w3.org/2000/svg" width="512" height="512" viewBox="0 0 512 512">
<g>
<path d="M 419.00 469.25 C408.93,471.82 383.77,472.50 372.39,470.50 C361.69,468.62 347.15,463.34 338.13,458.08 C329.97,453.31 318.56,443.04 313.06,435.50 C309.14,430.14 304.73,422.87 305.21,422.56 C308.83,420.22 344.33,400.02 344.48,400.22 C344.60,400.37 345.89,402.30 347.35,404.50 C352.20,411.80 361.13,419.93 368.19,423.46 C377.00,427.87 384.35,429.32 395.16,428.81 C402.70,428.45 404.86,427.91 410.67,424.94 C419.04,420.67 423.05,415.50 423.77,408.06 C425.23,392.80 417.50,385.56 384.85,371.66 C351.43,357.43 335.86,345.99 327.29,329.37 C321.67,318.46 319.76,310.00 319.76,296.00 C319.77,282.35 322.53,272.12 328.82,262.42 C336.96,249.88 350.78,239.94 366.21,235.52 C380.07,231.54 404.57,232.00 418.80,236.50 C428.00,239.40 439.52,246.58 445.64,253.23 C449.85,257.80 458.01,269.35 457.98,270.70 C457.97,271.14 452.46,274.99 445.73,279.26 C439.00,283.53 430.72,288.80 427.32,290.99 L 421.14 294.96 L 416.66 288.68 C409.18,278.19 403.01,275.00 390.22,275.00 C374.81,275.00 365.88,283.87 367.31,297.75 C368.46,308.85 374.97,314.42 399.21,324.98 C441.72,343.51 456.29,353.96 465.93,372.85 C471.92,384.60 474.14,408.09 470.55,421.83 C464.19,446.24 446.93,462.11 419.00,469.25 ZM 230.50 469.46 C224.58,471.07 199.27,472.40 194.00,471.38 C174.34,467.57 162.87,461.87 151.00,450.00 C141.47,440.47 134.18,429.31 136.25,427.43 C138.39,425.49 172.65,405.00 173.76,405.00 C174.34,405.00 176.06,407.13 177.59,409.74 C181.39,416.22 188.64,423.78 193.40,426.21 C198.45,428.78 207.52,429.61 213.69,428.06 C222.95,425.73 227.81,419.88 229.91,408.53 C230.64,404.57 231.00,375.08 231.00,318.82 L 231.00 235.00 L 279.00 235.00 L 278.98 321.75 C278.97,373.78 278.56,411.25 277.97,415.37 C276.83,423.24 272.94,435.14 269.57,441.08 C261.79,454.77 248.21,464.64 230.50,469.46 Z" fill="rgb(1,0,1)"/>
<path d="M 0.00 0.00 L 512.00 0.00 L 512.00 512.00 L 0.00 512.00 ZM 373.06 472.29 C378.51,473.73 407.38,473.65 412.23,472.18 C414.03,471.63 418.28,470.93 421.67,470.61 C427.82,470.05 436.00,467.44 436.00,466.05 C436.00,465.65 437.69,464.46 439.75,463.41 C441.81,462.36 445.19,460.22 447.26,458.66 C449.32,457.10 451.57,455.74 452.26,455.63 C454.27,455.33 456.07,453.92 455.55,453.08 C455.28,452.64 456.22,451.21 457.64,449.90 C459.06,448.58 461.95,444.80 464.07,441.50 C466.18,438.20 468.78,434.60 469.86,433.50 C471.46,431.86 472.03,428.96 473.05,417.19 C474.40,401.52 473.84,388.63 471.50,382.01 C470.68,379.67 470.00,376.75 470.00,375.53 C470.00,374.31 469.04,372.22 467.87,370.90 C466.69,369.58 464.89,366.64 463.87,364.36 C462.84,362.08 461.32,359.95 460.49,359.63 C459.65,359.31 458.54,357.91 458.01,356.53 C457.45,355.05 456.26,354.00 455.16,354.00 C454.12,354.00 450.70,351.54 447.57,348.52 C444.43,345.51 441.56,343.09 441.18,343.14 C439.21,343.42 438.00,342.86 438.00,341.66 C438.00,340.37 434.02,338.00 431.85,338.00 C430.29,338.00 423.84,334.89 421.12,332.81 C419.80,331.82 417.92,331.00 416.94,331.00 C415.95,331.00 414.36,330.22 413.41,329.26 C411.55,327.40 405.62,325.04 402.75,325.02 C401.79,325.01 401.00,324.55 401.00,324.00 C401.00,323.45 400.51,323.00 399.91,323.00 C399.31,323.00 397.67,322.10 396.27,321.00 C394.87,319.90 393.10,319.00 392.32,319.00 C391.55,319.00 389.69,318.09 388.20,316.99 C386.70,315.88 384.36,314.78 382.99,314.53 C381.59,314.28 377.97,311.37 374.75,307.91 L 369.00 301.73 L 369.00 295.36 C369.00,291.86 369.44,289.00 369.98,289.00 C370.52,289.00 371.87,287.21 372.99,285.02 C376.43,278.28 386.59,274.83 394.48,277.73 C396.69,278.54 400.12,279.16 402.10,279.12 C404.97,279.04 405.91,279.51 406.79,281.44 C407.40,282.77 409.31,284.91 411.05,286.18 C412.78,287.46 415.04,290.14 416.07,292.15 C417.09,294.15 418.68,296.54 419.60,297.45 C421.15,299.00 421.34,298.96 422.41,296.81 C423.04,295.54 424.92,294.05 426.60,293.50 C428.28,292.95 430.44,291.71 431.40,290.75 C432.36,289.79 433.56,289.00 434.06,289.00 C434.57,289.00 437.12,287.36 439.74,285.35 C442.36,283.35 447.71,280.20 451.62,278.36 C457.67,275.52 458.84,274.56 459.35,272.02 C459.93,269.09 459.33,266.00 457.97,265.00 C457.60,264.73 456.10,262.59 454.64,260.25 C453.17,257.91 451.52,256.00 450.97,256.00 C450.41,256.00 449.45,254.88 448.83,253.52 C448.21,252.15 446.86,250.77 445.85,250.45 C444.83,250.13 444.00,249.25 444.00,248.50 C444.00,247.75 442.99,247.00 441.75,246.82 C440.51,246.64 439.06,245.49 438.51,244.25 C437.97,243.01 436.77,242.00 435.84,242.00 C434.91,242.00 432.88,240.93 431.33,239.62 C427.70,236.57 419.99,233.95 413.00,233.38 L 407.50 232.94 L 415.83 235.48 C420.41,236.89 425.59,238.76 427.33,239.64 C429.74,240.87 432.96,242.95 436.12,245.25 C430.62,241.49 424.29,238.23 418.80,236.50 C408.65,233.29 393.28,232.14 380.27,233.18 C386.09,232.61 392.26,232.53 398.75,232.96 C406.54,233.47 408.98,232.97 405.42,231.61 C404.55,231.27 399.57,231.00 394.35,231.00 C389.14,231.00 383.99,230.53 382.92,229.96 C381.45,229.17 379.89,229.40 376.54,230.88 C374.09,231.96 369.49,233.11 366.30,233.44 C362.09,233.88 357.61,235.49 350.00,239.31 C344.23,242.21 339.61,245.11 339.74,245.76 C339.87,246.40 338.00,248.09 335.59,249.50 C333.01,251.01 330.95,253.05 330.60,254.44 C330.28,255.74 328.26,259.02 326.12,261.72 C323.72,264.76 321.97,268.24 321.53,270.82 C321.14,273.11 320.42,275.24 319.91,275.55 C319.41,275.86 319.00,278.29 319.00,280.94 C319.00,283.59 318.33,287.37 317.50,289.35 C315.72,293.60 315.59,297.54 317.10,301.85 C317.70,303.58 318.51,305.00 318.89,305.00 C319.27,305.00 319.63,300.39 319.70,294.75 C319.75,289.74 320.25,285.07 321.23,280.66 C320.24,285.33 319.77,290.37 319.76,296.00 C319.76,310.00 321.67,318.46 327.29,329.37 C328.70,332.10 330.30,334.69 332.13,337.18 C327.10,330.47 323.73,322.95 321.33,314.00 C319.06,305.54 319.05,305.52 319.37,311.00 C319.73,317.12 322.25,326.90 323.72,327.87 C324.24,328.22 325.92,331.20 327.46,334.50 C328.99,337.80 331.65,341.91 333.37,343.64 C335.09,345.37 337.77,348.18 339.31,349.89 C340.86,351.60 342.69,353.00 343.39,353.00 C344.08,353.00 345.71,354.12 347.00,355.50 C348.29,356.88 350.15,358.00 351.14,358.00 C352.12,358.00 353.79,358.93 354.84,360.06 C357.02,362.40 363.34,366.00 365.27,366.00 C366.34,366.00 381.75,373.05 387.24,376.05 C388.19,376.57 389.60,377.00 390.36,377.00 C391.13,377.00 392.27,377.63 392.91,378.39 C393.54,379.15 395.06,380.02 396.28,380.31 C400.95,381.42 406.07,383.72 408.24,385.67 C409.48,386.79 411.29,387.98 412.25,388.32 C413.21,388.66 414.00,389.86 414.00,390.99 C414.00,392.21 415.02,393.51 416.50,394.18 C418.94,395.29 419.42,396.15 419.06,398.79 C418.97,399.51 419.79,401.54 420.89,403.32 C422.83,406.46 422.84,406.65 421.08,410.56 C420.09,412.77 417.76,415.82 415.89,417.33 C414.03,418.84 411.38,421.13 410.00,422.42 C407.20,425.03 401.79,425.94 388.00,426.12 C381.41,426.20 378.49,425.76 375.00,424.18 C370.00,421.91 367.19,420.84 365.13,420.42 C363.61,420.11 358.05,415.07 358.17,414.11 C358.49,411.30 357.69,410.10 355.31,409.82 C353.27,409.58 352.43,408.77 351.84,406.48 C351.38,404.70 349.83,402.74 348.03,401.68 C345.15,399.98 344.47,399.92 345.86,402.27 C345.10,401.13 344.55,400.32 344.48,400.22 C344.41,400.12 335.98,404.85 326.92,410.00 C336.06,404.69 343.34,400.26 343.60,399.84 C345.13,397.36 336.85,400.61 329.56,405.35 C326.78,407.16 322.56,409.19 320.20,409.87 C317.83,410.56 315.64,411.76 315.34,412.56 C315.04,413.35 314.22,414.00 313.54,414.00 C312.85,414.00 311.08,415.12 309.59,416.50 C308.11,417.88 306.29,419.00 305.56,419.00 C304.82,419.00 303.95,420.08 303.62,421.39 C303.00,423.84 306.48,431.43 310.08,435.50 C311.06,436.60 312.15,438.72 312.52,440.21 C313.31,443.37 316.80,447.10 321.89,450.23 C323.88,451.44 325.95,452.80 326.50,453.25 C330.52,456.51 338.52,462.00 339.26,462.00 C339.76,462.00 342.55,463.59 345.47,465.53 C348.87,467.78 352.10,469.10 354.44,469.19 C356.44,469.27 358.32,469.70 358.60,470.16 C358.89,470.62 361.23,471.02 363.81,471.04 C366.39,471.07 370.55,471.63 373.06,472.29 ZM 214.37 473.79 C215.10,474.97 222.15,473.98 224.47,472.37 C225.56,471.62 228.14,471.00 230.22,471.00 C232.30,471.00 234.00,470.55 234.00,470.00 C234.00,469.45 235.96,469.00 238.35,469.00 C241.50,469.00 243.21,468.42 244.60,466.89 C245.64,465.73 248.55,463.74 251.06,462.47 C253.57,461.20 256.21,459.45 256.94,458.58 C257.66,457.71 259.22,457.00 260.42,457.00 C263.14,457.00 265.00,455.21 265.00,452.61 C265.00,451.52 265.93,449.64 267.07,448.42 C268.21,447.21 269.24,445.54 269.37,444.71 C269.49,443.88 271.26,441.35 273.31,439.08 C276.13,435.96 276.89,434.40 276.44,432.62 C276.12,431.34 276.56,428.59 277.43,426.52 C278.29,424.45 279.00,421.33 279.00,419.58 C279.00,417.83 279.56,415.84 280.25,415.15 C281.22,414.18 281.61,394.32 282.00,325.38 C282.48,239.92 282.44,236.80 280.64,235.18 C279.61,234.26 278.36,232.43 277.86,231.12 C276.99,228.85 276.86,228.82 275.06,230.45 C273.40,231.94 270.54,232.17 252.56,232.24 C239.11,232.29 231.42,232.70 230.42,233.43 C229.08,234.41 228.91,244.66 228.95,320.79 C228.98,371.91 228.62,407.74 228.07,408.77 C227.56,409.72 226.21,412.56 225.06,415.09 C223.92,417.61 221.90,420.25 220.57,420.96 C219.25,421.67 217.94,423.13 217.65,424.21 C217.25,425.75 216.64,426.02 214.82,425.45 C213.54,425.06 212.25,424.34 211.95,423.87 C211.64,423.40 209.63,423.91 207.48,425.01 C202.60,427.50 202.55,427.50 196.50,424.52 C193.75,423.17 190.97,422.05 190.32,422.03 C189.67,422.01 188.85,421.09 188.49,419.97 C188.14,418.86 186.85,417.29 185.63,416.49 C184.41,415.70 182.31,412.78 180.96,410.02 C179.16,406.36 177.45,404.48 174.61,403.06 L 170.73 401.12 L 166.24 405.60 C163.77,408.07 161.53,409.86 161.25,409.58 C160.56,408.90 157.27,410.71 153.00,414.12 C151.07,415.65 147.25,418.10 144.50,419.55 C135.68,424.19 133.20,426.55 133.47,430.00 C133.60,431.68 134.67,434.09 135.85,435.35 C137.03,436.60 138.00,438.40 138.00,439.33 C138.00,440.27 139.57,442.56 141.50,444.43 C143.43,446.30 145.00,448.23 145.00,448.72 C145.00,449.81 151.12,455.83 152.50,456.10 C154.30,456.45 157.00,458.46 157.05,459.49 C157.12,460.75 175.86,470.03 178.30,470.01 C179.29,470.01 181.54,470.75 183.30,471.66 C185.89,473.01 189.13,473.29 200.18,473.15 C207.71,473.05 214.09,473.34 214.37,473.79 ZM 346.00 359.44 C346.00,360.30 346.45,361.00 347.00,361.00 C347.55,361.00 348.00,360.58 348.00,360.06 C348.00,359.54 347.55,358.84 347.00,358.50 C346.45,358.16 346.00,358.58 346.00,359.44 ZM 416.82 469.73 C407.16,471.71 391.32,472.34 379.61,471.31 C391.23,472.13 407.80,471.49 416.82,469.73 ZM 383.80 428.45 C386.60,428.72 389.90,428.81 393.64,428.72 C397.07,428.63 399.41,428.53 401.32,428.29 C399.65,428.54 397.72,428.68 395.16,428.81 C390.95,429.01 387.26,428.91 383.80,428.45 ZM 356.63 239.06 C350.24,241.97 344.33,245.83 339.24,250.37 L 339.32 250.29 C344.33,245.63 350.11,241.88 356.63,239.06 ZM 360.43 418.36 C363.43,420.66 366.62,422.66 369.88,424.28 C369.32,424.02 368.76,423.74 368.19,423.46 C365.75,422.24 363.08,420.46 360.43,418.36 ZM 445.12 252.67 C445.50,253.05 445.85,253.41 446.16,253.75 C448.18,255.99 451.23,260.04 453.72,263.62 C451.10,259.88 447.84,255.61 445.64,253.23 C445.47,253.04 445.30,252.86 445.12,252.67 ZM 353.10 464.99 C347.61,462.96 342.42,460.58 338.13,458.08 C342.26,460.49 347.55,462.90 353.10,464.99 ZM 305.41 422.43 C305.33,422.48 305.27,422.52 305.21,422.56 C305.19,422.57 305.18,422.60 305.17,422.64 C305.18,422.60 305.19,422.57 305.21,422.55 C305.22,422.54 305.29,422.50 305.41,422.43 Z" fill="rgb(254,222,0)"/>
<path d="M 214.37 473.79 C214.09,473.34 207.71,473.05 200.18,473.15 C189.13,473.29 185.89,473.01 183.30,471.66 C181.54,470.75 179.29,470.01 178.30,470.01 C175.86,470.03 157.12,460.75 157.05,459.49 C157.00,458.46 154.30,456.45 152.50,456.10 C151.12,455.83 145.00,449.81 145.00,448.72 C145.00,448.23 143.43,446.30 141.50,444.43 C139.57,442.56 138.00,440.27 138.00,439.33 C138.00,438.40 137.03,436.60 135.85,435.35 C134.67,434.09 133.60,431.68 133.47,430.00 C133.20,426.55 135.68,424.19 144.50,419.55 C147.25,418.10 151.07,415.65 153.00,414.12 C157.27,410.71 160.56,408.90 161.25,409.58 C161.53,409.86 163.77,408.07 166.24,405.60 L 170.73 401.12 L 174.61 403.06 C177.45,404.48 179.16,406.36 180.96,410.02 C182.31,412.78 184.41,415.70 185.63,416.49 C186.85,417.29 188.14,418.86 188.49,419.97 C188.85,421.09 189.67,422.01 190.32,422.03 C190.97,422.05 193.75,423.17 196.50,424.52 C202.55,427.50 202.60,427.50 207.48,425.01 C209.63,423.91 211.64,423.40 211.95,423.87 C212.25,424.34 213.54,425.06 214.82,425.45 C216.64,426.02 217.25,425.75 217.65,424.21 C217.94,423.13 219.25,421.67 220.57,420.96 C221.90,420.25 223.92,417.61 225.06,415.09 C226.21,412.56 227.56,409.72 228.07,408.77 C228.62,407.74 228.98,371.91 228.95,320.79 C228.91,244.66 229.08,234.41 230.42,233.43 C231.42,232.70 239.11,232.29 252.56,232.24 C270.54,232.17 273.40,231.94 275.06,230.45 C276.86,228.82 276.99,228.85 277.86,231.12 C278.36,232.43 279.61,234.26 280.64,235.18 C282.44,236.80 282.48,239.92 282.00,325.38 C281.61,394.32 281.22,414.18 280.25,415.15 C279.56,415.84 279.00,417.83 279.00,419.58 C279.00,421.33 278.29,424.45 277.43,426.52 C276.56,428.59 276.12,431.34 276.44,432.62 C276.89,434.40 276.13,435.96 273.31,439.08 C271.26,441.35 269.49,443.88 269.37,444.71 C269.24,445.54 268.21,447.21 267.07,448.42 C265.93,449.64 265.00,451.52 265.00,452.61 C265.00,455.21 263.14,457.00 260.42,457.00 C259.22,457.00 257.66,457.71 256.94,458.58 C256.21,459.45 253.57,461.20 251.06,462.47 C248.55,463.74 245.64,465.73 244.60,466.89 C243.21,468.42 241.50,469.00 238.35,469.00 C235.96,469.00 234.00,469.45 234.00,470.00 C234.00,470.55 232.30,471.00 230.22,471.00 C228.14,471.00 225.56,471.62 224.47,472.37 C222.15,473.98 215.10,474.97 214.37,473.79 ZM 230.50 469.46 C248.21,464.64 261.79,454.77 269.57,441.08 C272.94,435.14 276.83,423.24 277.97,415.37 C278.56,411.25 278.97,373.78 278.98,321.75 L 279.00 235.00 L 255.00 235.00 L 231.00 235.00 L 231.00 318.82 C231.00,375.08 230.64,404.57 229.91,408.53 C227.81,419.88 222.95,425.73 213.69,428.06 C207.52,429.61 198.45,428.78 193.40,426.21 C188.64,423.78 181.39,416.22 177.59,409.74 C176.06,407.13 174.34,405.00 173.76,405.00 C172.65,405.00 138.39,425.49 136.25,427.43 C134.18,429.31 141.47,440.47 151.00,450.00 C162.87,461.87 174.34,467.57 194.00,471.38 C199.27,472.40 224.58,471.07 230.50,469.46 ZM 373.06 472.29 C370.55,471.63 366.39,471.07 363.81,471.04 C361.23,471.02 358.89,470.62 358.60,470.16 C358.32,469.70 356.44,469.27 354.44,469.19 C352.10,469.10 348.87,467.78 345.47,465.53 C342.55,463.59 339.76,462.00 339.26,462.00 C338.52,462.00 330.52,456.51 326.50,453.25 C325.95,452.80 323.88,451.44 321.89,450.23 C316.80,447.10 313.31,443.37 312.52,440.21 C312.15,438.72 311.06,436.60 310.08,435.50 C306.48,431.43 303.00,423.84 303.62,421.39 C303.95,420.08 304.82,419.00 305.56,419.00 C306.29,419.00 308.11,417.88 309.59,416.50 C311.08,415.12 312.85,414.00 313.54,414.00 C314.22,414.00 315.04,413.35 315.34,412.56 C315.64,411.76 317.83,410.56 320.20,409.87 C322.56,409.19 326.78,407.16 329.56,405.35 C336.85,400.61 345.13,397.36 343.60,399.84 C343.31,400.30 334.62,405.56 324.29,411.52 C313.96,417.48 305.37,422.44 305.21,422.55 C304.74,422.87 309.13,430.12 313.06,435.50 C318.56,443.04 329.97,453.31 338.13,458.08 C347.73,463.68 361.86,468.64 373.82,470.61 C386.29,472.65 408.16,471.99 419.00,469.24 C446.88,462.16 464.19,446.24 470.55,421.83 C474.14,408.09 471.92,384.60 465.93,372.85 C456.29,353.96 441.72,343.51 399.21,324.98 C374.97,314.42 368.46,308.85 367.31,297.75 C365.88,283.87 374.81,275.00 390.22,275.00 C403.01,275.00 409.18,278.19 416.66,288.68 L 421.14 294.96 L 427.32 290.99 C430.72,288.80 439.00,283.53 445.73,279.26 C452.46,274.99 457.97,271.14 457.98,270.70 C458.01,269.45 450.12,258.14 446.16,253.75 C442.46,249.66 432.80,242.42 427.33,239.64 C425.59,238.76 420.41,236.89 415.83,235.48 L 407.50 232.94 L 413.00 233.38 C419.99,233.95 427.70,236.57 431.33,239.62 C432.88,240.93 434.91,242.00 435.84,242.00 C436.77,242.00 437.97,243.01 438.51,244.25 C439.06,245.49 440.51,246.64 441.75,246.82 C442.99,247.00 444.00,247.75 444.00,248.50 C444.00,249.25 444.83,250.13 445.85,250.45 C446.86,250.77 448.21,252.15 448.83,253.52 C449.45,254.88 450.41,256.00 450.97,256.00 C451.52,256.00 453.17,257.91 454.64,260.25 C456.10,262.59 457.60,264.73 457.97,265.00 C459.33,266.00 459.93,269.09 459.35,272.02 C458.84,274.56 457.67,275.52 451.62,278.36 C447.71,280.20 442.36,283.35 439.74,285.35 C437.12,287.36 434.57,289.00 434.06,289.00 C433.56,289.00 432.36,289.79 431.40,290.75 C430.44,291.71 428.28,292.95 426.60,293.50 C424.92,294.05 423.04,295.54 422.41,296.81 C421.34,298.96 421.15,299.00 419.60,297.45 C418.68,296.54 417.09,294.15 416.07,292.15 C415.04,290.14 412.78,287.46 411.05,286.18 C409.31,284.91 407.40,282.77 406.79,281.44 C405.91,279.51 404.97,279.04 402.10,279.12 C400.12,279.16 396.69,278.54 394.48,277.73 C386.59,274.83 376.43,278.28 372.99,285.02 C371.87,287.21 370.52,289.00 369.98,289.00 C369.44,289.00 369.00,291.86 369.00,295.36 L 369.00 301.73 L 374.75 307.91 C377.97,311.37 381.59,314.28 382.99,314.53 C384.36,314.78 386.70,315.88 388.20,316.99 C389.69,318.09 391.55,319.00 392.32,319.00 C393.10,319.00 394.87,319.90 396.27,321.00 C397.67,322.10 399.31,323.00 399.91,323.00 C400.51,323.00 401.00,323.45 401.00,324.00 C401.00,324.55 401.79,325.01 402.75,325.02 C405.62,325.04 411.55,327.40 413.41,329.26 C414.36,330.22 415.95,331.00 416.94,331.00 C417.92,331.00 419.80,331.82 421.12,332.81 C423.84,334.89 430.29,338.00 431.85,338.00 C434.02,338.00 438.00,340.37 438.00,341.66 C438.00,342.86 439.21,343.42 441.18,343.14 C441.56,343.09 444.43,345.51 447.57,348.52 C450.70,351.54 454.12,354.00 455.16,354.00 C456.26,354.00 457.45,355.05 458.01,356.53 C458.54,357.91 459.65,359.31 460.49,359.63 C461.32,359.95 462.84,362.08 463.87,364.36 C464.89,366.64 466.69,369.58 467.87,370.90 C469.04,372.22 470.00,374.31 470.00,375.53 C470.00,376.75 470.68,379.67 471.50,382.01 C473.84,388.63 474.40,401.52 473.05,417.19 C472.03,428.96 471.46,431.86 469.86,433.50 C468.78,434.60 466.18,438.20 464.07,441.50 C461.95,444.80 459.06,448.58 457.64,449.90 C456.22,451.21 455.28,452.64 455.55,453.08 C456.07,453.92 454.27,455.33 452.26,455.63 C451.57,455.74 449.32,457.10 447.26,458.66 C445.19,460.22 441.81,462.36 439.75,463.41 C437.69,464.46 436.00,465.65 436.00,466.05 C436.00,467.44 427.82,470.05 421.67,470.61 C418.28,470.93 414.03,471.63 412.23,472.18 C407.38,473.65 378.51,473.73 373.06,472.29 ZM 378.11 427.47 C366.58,424.26 354.74,415.49 347.50,404.80 C344.26,400.02 344.35,399.50 348.03,401.68 C349.83,402.74 351.38,404.70 351.84,406.48 C352.43,408.77 353.27,409.58 355.31,409.82 C357.69,410.10 358.49,411.30 358.17,414.11 C358.05,415.07 363.61,420.11 365.13,420.42 C367.19,420.84 370.00,421.91 375.00,424.18 C378.49,425.76 381.41,426.20 388.00,426.12 C401.79,425.94 407.20,425.03 410.00,422.42 C411.38,421.13 414.03,418.84 415.89,417.33 C417.76,415.82 420.09,412.77 421.08,410.56 C422.84,406.65 422.83,406.46 420.89,403.32 C419.79,401.54 418.97,399.51 419.06,398.79 C419.42,396.15 418.94,395.29 416.50,394.18 C415.02,393.51 414.00,392.21 414.00,390.99 C414.00,389.86 413.21,388.66 412.25,388.32 C411.29,387.98 409.48,386.79 408.24,385.67 C406.07,383.72 400.95,381.42 396.28,380.31 C395.06,380.02 393.54,379.15 392.91,378.39 C392.27,377.63 391.13,377.00 390.36,377.00 C389.60,377.00 388.19,376.57 387.24,376.05 C381.75,373.05 366.34,366.00 365.27,366.00 C363.34,366.00 357.02,362.40 354.84,360.06 C353.79,358.93 352.12,358.00 351.14,358.00 C350.15,358.00 348.29,356.88 347.00,355.50 C345.71,354.12 344.08,353.00 343.39,353.00 C342.69,353.00 340.86,351.60 339.31,349.89 C337.77,348.18 335.09,345.37 333.37,343.64 C331.65,341.91 328.99,337.80 327.46,334.50 C325.92,331.20 324.24,328.22 323.72,327.87 C322.25,326.90 319.73,317.12 319.37,311.00 C319.05,305.52 319.06,305.54 321.33,314.00 C328.36,340.21 343.71,354.14 384.85,371.66 C417.50,385.56 425.23,392.80 423.77,408.06 C423.05,415.52 419.05,420.67 410.60,424.98 C404.32,428.18 402.99,428.48 393.64,428.72 C386.94,428.89 381.67,428.47 378.11,427.47 ZM 346.00 359.44 C346.00,358.58 346.45,358.16 347.00,358.50 C347.55,358.84 348.00,359.54 348.00,360.06 C348.00,360.58 347.55,361.00 347.00,361.00 C346.45,361.00 346.00,360.30 346.00,359.44 ZM 317.10 301.85 C315.59,297.54 315.72,293.60 317.50,289.35 C318.33,287.37 319.00,283.59 319.00,280.94 C319.00,278.29 319.41,275.86 319.91,275.55 C320.42,275.24 321.14,273.11 321.53,270.82 C321.97,268.24 323.72,264.76 326.12,261.72 C328.26,259.02 330.28,255.74 330.60,254.44 C330.95,253.05 333.01,251.01 335.59,249.50 C338.00,248.09 339.87,246.40 339.74,245.76 C339.61,245.11 344.23,242.21 350.00,239.31 C357.61,235.49 362.09,233.88 366.30,233.44 C369.49,233.11 374.09,231.96 376.54,230.88 C379.89,229.40 381.45,229.17 382.92,229.96 C383.99,230.53 389.14,231.00 394.35,231.00 C399.57,231.00 404.55,231.27 405.42,231.61 C408.98,232.97 406.54,233.47 398.75,232.96 C373.59,231.31 353.36,237.21 339.32,250.29 C326.01,262.71 319.90,276.55 319.70,294.75 C319.63,300.39 319.27,305.00 318.89,305.00 C318.51,305.00 317.70,303.58 317.10,301.85 Z" fill="rgb(246,222,15)"/>
</g>
</svg>